<?xml version="1.0" encoding="utf-8"?>
<!-- Svg Vector Icons : http://www.onlinewebfonts.com/icon -->
<!DOCTYPE svg PUBLIC "-//W3C//DTD SVG 1.1//EN" "http://www.w3.org/Graphics/SVG/1.1/DTD/svg11.dtd">
<svg version="1.1" xmlns="http://www.w3.org/2000/svg" xmlns:xlink="http://www.w3.org/1999/xlink" x="0px" y="0px" viewBox="0 0 1000 1000" enable-background="new 0 0 1000 1000" xml:space="preserve">
<metadata> Svg Vector Icons : http://www.onlinewebfonts.com/icon </metadata>
<g><path d="M385.7,72.6c42.3,0,83.3,8.3,121.8,24.6c37.3,15.8,70.8,38.3,99.5,67.1c28.8,28.8,51.4,62.3,67.1,99.5c16.3,38.6,24.6,79.6,24.6,121.8c0,42.3-8.3,83.3-24.6,121.9c-15.8,37.3-38.3,70.8-67.1,99.5c-28.8,28.8-62.3,51.4-99.5,67.1c-38.6,16.3-79.6,24.6-121.8,24.6s-83.3-8.3-121.8-24.6c-37.3-15.8-70.8-38.3-99.5-67.1c-28.8-28.8-51.4-62.3-67.1-99.5C80.9,469,72.6,428,72.6,385.7c0-42.3,8.3-83.3,24.6-121.8c15.8-37.3,38.3-70.8,67.1-99.5s62.3-51.4,99.5-67.1C302.4,80.9,343.4,72.6,385.7,72.6 M385.7,10C178.2,10,10,178.2,10,385.7c0,207.5,168.2,375.7,375.7,375.7s375.7-168.2,375.7-375.7C761.4,178.2,593.2,10,385.7,10L385.7,10z"/><path d="M662.2,662.2L662.2,662.2l265.2,265.2l0,0L662.2,662.2 M662.1,599.6c-16.1,0-32.1,6.1-44.3,18.3c-24.4,24.4-24.4,64.2,0,88.6l265.3,265.3c12.2,12.2,28.2,18.3,44.3,18.3s32.1-6.1,44.3-18.3c24.4-24.4,24.4-64.2,0-88.6L706.4,617.8C694.2,605.7,678.2,599.6,662.1,599.6L662.1,599.6z"/></g>
</svg>